<svg xmlns="http://www.w3.org/2000/svg" xmlns:xlink="http://www.w3.org/1999/xlink" width="15" height="17" viewBox="0 0 15 17"><defs><path id="a" d="M794.08 585.13l3.75 2.47v-11.18c0-.79.66-1.42 1.46-1.42.8 0 1.45.63 1.45 1.42v11.18l3.76-2.47c.32-.2.72-.26 1.08-.15.37.11.66.38.8.72a1.7 1.7 0 0 1-.5 2.15l-5.47 3.6a.28.28 0 0 1-.07.06c-.1.12-.23.22-.37.3a1.24 1.24 0 0 1-.56.16h-.05l-.07.02-.07-.01-.05-.01-.04-.01c-.13 0-.26-.03-.38-.07l-.14-.08c-.1-.06-.2-.12-.28-.19l-.12-.15-5.51-3.63a1.7 1.7 0 0 1-.5-2.15c.14-.34.43-.6.8-.71.37-.11.76-.06 1.08.15z"/></defs><use xlink:href="#a" transform="translate(-792 -575)"/></svg>