<svg xmlns="http://www.w3.org/2000/svg" xmlns:xlink="http://www.w3.org/1999/xlink" width="32" height="27" viewBox="0 0 32 27"><defs><path id="a" d="M1103.97 678.8v16.7c0 1.39-1.15 2.5-2.58 2.5h-26.82a2.54 2.54 0 0 1-2.57-2.53v-16.74c0-1.35 1.15-2.33 2.57-2.33h7.52v-4.05c0-.74.8-1.35 1.56-1.35h8.7c.76 0 1.56.6 1.56 1.35v4.05h7.52c.66 0 1.32.17 1.8.64.5.47.77 1.08.74 1.76zm-22.93.3v16.2h13.92v-16.2zm3.83-2.7h6.26v-2.7h-6.26zm-10.09 18.9h4.18v-16.2h-4.18zm26.44-16.2h-4.18v16.2h4.18z"/></defs><use xlink:href="#a" transform="translate(-1072 -671)"/></svg>