<svg xmlns="http://www.w3.org/2000/svg" xmlns:xlink="http://www.w3.org/1999/xlink" width="22" height="23" viewBox="0 0 22 23"><defs><path id="a" d="M135.2 4324.02a.98.98 0 0 0-1.13.6c-.27.61-2.92 3.33-5.2 3.43-1.3.05-2.5-.84-3.77-1.78-1.65-1.18-3.48-2.52-5.83-2.08-3.47.65-5.1 3.74-5.17 3.89-.1.2-.13.44-.07.67l1 4.42 2.92 12.84c.1.47.52.76.97.76.08 0 .15 0 .23-.02a.98.98 0 0 0 .75-1.19l-1.7-7.5c.45-.68 1.72-2.39 3.72-2.84 1.2-.27 2.15.05 3.25.4 1.23.4 2.63.87 4.43.47 3.77-.87 6.32-5.32 6.4-11.1a.98.98 0 0 0-.8-.97z"/></defs><use xlink:href="#a" transform="translate(-114 -4324)"/></svg>