<svg xmlns="http://www.w3.org/2000/svg" xmlns:xlink="http://www.w3.org/1999/xlink" width="28" height="28" viewBox="0 0 28 28"><defs><path id="a" d="M800 689.87a5.88 5.88 0 1 1 0-11.75 5.88 5.88 0 0 1 0 11.75zm0-9.58a3.73 3.73 0 0 0-3.71 3.71 3.73 3.73 0 0 0 3.71 3.71 3.73 3.73 0 0 0 3.71-3.71 3.73 3.73 0 0 0-3.71-3.71zm0 17.71h-.15c-1.07 0-1.98-.12-2.04-.12a1.1 1.1 0 0 1-.94-.91l-.3-2.2a10.7 10.7 0 0 1-1.93-.82l-1.7 1.31c-.4.3-.91.27-1.31 0-.03-.03-.76-.6-1.52-1.34l-.12-.12c-.76-.76-1.31-1.5-1.34-1.52-.3-.4-.3-.91 0-1.31l1.34-1.77c-.34-.6-.58-1.27-.8-1.94l-2.12-.3a1.07 1.07 0 0 1-.92-.95c-.03-.03-.15-.94-.15-2.01v-.15c0-1.07.12-1.98.12-2.04.06-.49.43-.85.91-.94l2.2-.3c.2-.68.48-1.32.82-1.93l-1.31-1.7a1.1 1.1 0 0 1 0-1.31c.03-.03.6-.76 1.34-1.52l.12-.12c.76-.76 1.5-1.31 1.52-1.34.4-.3.91-.3 1.31 0l1.77 1.34c.6-.34 1.27-.58 1.94-.8l.3-2.12c.07-.5.46-.86.95-.92.03-.03.94-.15 2.01-.15h.15c1.07 0 1.98.12 2.04.12.49.06.85.43.94.91l.3 2.2c.68.2 1.32.48 1.93.82l1.7-1.31c.4-.3.91-.27 1.31 0 .03.03.76.6 1.52 1.34l.12.12c.76.76 1.31 1.5 1.34 1.52.3.4.3.91 0 1.31l-1.3 1.77c.33.6.57 1.27.78 1.94l2.14.3c.48.07.85.46.9.95 0 .03.13.98.13 2.04v.15c0 1.07-.12 1.98-.12 2.04a1.1 1.1 0 0 1-.91.95l-2.2.3c-.2.67-.48 1.3-.82 1.92l1.31 1.73c.3.4.27.91 0 1.31-.03.03-.6.76-1.34 1.52l-.12.12c-.76.76-1.5 1.31-1.52 1.34-.4.3-.91.3-1.31 0l-1.77-1.37c-.6.34-1.27.58-1.94.8l-.3 2.13c-.07.48-.46.85-.95.9-.03 0-.94.13-2.01.13zm-1.1-2.2c.28.04.61.04.95.04h.15c.33 0 .67 0 .94-.03l.28-2.01c.06-.46.4-.8.82-.91a8.58 8.58 0 0 0 2.68-1.1c.24-.15.55-.18.82-.12.15.03.3.12.43.21l1.6 1.22c.22-.18.46-.4.7-.64l.13-.12c.24-.24.46-.49.64-.7l-1.22-1.61a1.1 1.1 0 0 1-.06-1.22c.52-.8.88-1.68 1.1-2.59.09-.45.45-.82.91-.88l2.04-.27c.03-.28.03-.61.03-.95V684c0-.33 0-.67-.03-.94l-2.01-.28c-.43-.06-.8-.4-.91-.82a9.12 9.12 0 0 0-1.19-2.89c-.12-.34-.06-.73.15-1l1.25-1.65-.64-.7-.12-.12c-.24-.24-.49-.46-.7-.64l-1.61 1.22c-.4.27-.92.27-1.28 0a9.73 9.73 0 0 0-2.59-1.1c-.43-.09-.76-.45-.82-.91l-.27-2.04c-.28-.03-.61-.03-.95-.03H800c-.33 0-.67 0-.94.03l-.28 2.07c-.06.49-.42.85-.91.91-.91.22-1.8.58-2.59 1.07a1.1 1.1 0 0 1-.82.12c-.15-.03-.3-.12-.43-.21l-1.58-1.22-.7.64-.12.12c-.24.24-.46.49-.64.7l1.22 1.61c.27.37.27.83.06 1.22-.03.03-.03.06-.06.1-.49.78-.85 1.67-1.07 2.58-.09.43-.45.76-.91.82l-2.04.27c-.03.28-.03.61-.03.95v.12c0 .33 0 .67.03.94l2.01.28c.49.06.85.42.91.91v.03c.22.91.58 1.77 1.07 2.56.15.27.21.6.09.91-.03.12-.12.24-.21.37l-1.19 1.58.64.7.12.12c.24.24.49.46.7.64l1.61-1.22c.4-.3.98-.27 1.34.03.8.49 1.65.82 2.53 1.07.42.09.76.45.82.91z"/></defs><use xlink:href="#a" transform="translate(-786 -670)"/></svg>