<svg xmlns="http://www.w3.org/2000/svg" xmlns:xlink="http://www.w3.org/1999/xlink" width="19.76" height="19.77" viewBox="0 0 19.76 19.77"><defs><path id="a" d="M161.23 56.74l-.05-.04-2.37-2.07a1.6 1.6 0 0 0-1.25-.41 1.9 1.9 0 0 0-1.15.52l-.06.07-2.33 2.95a1.65 1.65 0 0 0 .17 2.41l1.2.8c-.1.41-.71 1.6-2.89 3.77-2.15 2.16-3.36 2.77-3.76 2.86l-.79-1.18a1.67 1.67 0 0 0-2.42-.18l-2.92 2.33-.06.06c-.66.66-.7 1.76-.11 2.4l2.06 2.35.05.05c.4.4 1 .55 1.69.55 1.2 0 2.6-.49 3.32-.77 1.4-.55 4.15-1.9 6.88-4.62a21.06 21.06 0 0 0 4.61-6.88c.4-1.1 1.32-3.82.18-4.97z"/></defs><use fill="#00bb31" xlink:href="#a" transform="translate(-142.02 -54.21)"/></svg>