<svg width="133" height="32" viewBox="0 0 133 32" xmlns="http://www.w3.org/2000/svg"><title>Логотип</title><path d="M0 23.236a4.67 4.67 0 0 1 .862-.149c.305-.025.605-.037.9-.037.339 0 .673.037 1.003.112.33.074.628.21.894.41.266.199.482.472.647.82.165.348.247.792.247 1.33 0 .522-.078.966-.235 1.33a2.458 2.458 0 0 1-.621.89 2.397 2.397 0 0 1-.888.497 3.469 3.469 0 0 1-1.033.155H1.61a4.933 4.933 0 0 1-.489-.025 1.435 1.435 0 0 1-.17-.025v3.307H0v-8.615zm1.814.671c-.17 0-.332.007-.489.02a2.173 2.173 0 0 0-.374.055v3.704a.438.438 0 0 0 .159.032l.222.012c.076.004.15.006.222.006h.158c.237 0 .465-.029.685-.087.22-.058.414-.164.583-.317.17-.153.307-.36.413-.621.105-.261.158-.59.158-.989 0-.348-.049-.638-.146-.87a1.538 1.538 0 0 0-.38-.56c-.157-.14-.34-.24-.552-.298a2.48 2.48 0 0 0-.66-.087zm7.317 5.507h-2.51l-.711 2.437h-.939l2.676-8.839h.52l2.676 8.839h-.989l-.723-2.437zm-2.257-.833h2.029l-.774-2.685-.24-1.305h-.026l-.24 1.33-.75 2.66zm4.845-5.432h3.97v.858h-3.02v2.673c.12-.025.265-.05.438-.075a3.53 3.53 0 0 1 .501-.037c.355 0 .69.039 1.002.118.313.079.586.213.818.404.233.19.417.45.552.777.135.327.203.74.203 1.237 0 .497-.066.926-.197 1.286-.13.36-.313.655-.545.883-.233.228-.51.398-.83.51a3.222 3.222 0 0 1-1.066.167c-.119 0-.256-.002-.412-.006a9.9 9.9 0 0 1-.482-.025 6.689 6.689 0 0 1-.495-.056 4.254 4.254 0 0 1-.437-.087V23.15zm.95 7.869c.094.033.235.054.426.062.19.008.37.013.539.013.456 0 .828-.145 1.116-.436.287-.29.43-.75.43-1.38 0-.397-.044-.718-.132-.963a1.337 1.337 0 0 0-.362-.565 1.148 1.148 0 0 0-.539-.261 3.393 3.393 0 0 0-.666-.063 2.01 2.01 0 0 0-.203.013l-.234.025c-.08.008-.154.02-.222.037l-.152.037v3.481zm4.427-3.518c0-1.475.24-2.594.723-3.356C18.3 23.38 19.036 23 20.025 23c.533 0 .985.106 1.357.317.372.211.675.512.907.901.233.39.404.862.514 1.417a9.64 9.64 0 0 1 .165 1.865c0 1.475-.243 2.594-.73 3.356-.486.763-1.223 1.144-2.213 1.144-.524 0-.972-.106-1.344-.317a2.514 2.514 0 0 1-.913-.901c-.237-.39-.408-.862-.514-1.417a10.014 10.014 0 0 1-.158-1.865zm1.002 0c0 .489.036.953.108 1.392.071.44.183.825.336 1.156.152.332.35.597.596.796.245.199.54.298.887.298.635 0 1.117-.298 1.446-.895.33-.596.495-1.512.495-2.747 0-.48-.036-.94-.108-1.38a4.616 4.616 0 0 0-.336-1.162 2.156 2.156 0 0 0-.596-.802c-.245-.199-.545-.298-.9-.298-.626 0-1.104.298-1.434.895-.33.596-.494 1.512-.494 2.747zm10.907-3.493h-2.182v7.844h-.951v-7.844h-2.181v-.858h5.314v.858zm4.4 5.407h-2.51l-.711 2.437h-.938l2.676-8.839h.52l2.675 8.839h-.989l-.723-2.437zm-2.257-.833h2.03l-.775-2.685-.24-1.305h-.026l-.24 1.33-.75 2.66zm4.845-5.432h3.944v.858h-2.993v2.946h2.752v.858h-2.752v3.182H40v.858h-4.007v-8.702zm10.944 2.984l.115-1.318H47l-.406 1.23-1.788 3.78h-.317l-1.877-3.78-.393-1.23h-.051l.177 1.318v5.718h-.913v-8.702h.8l2.143 4.276.317 1.02h.025l.304-1.032 2.03-4.264h.837v8.702h-.952v-5.718zm9.36-2.126h-3.145v7.844H52.2v-8.702h5.047v8.702h-.951v-7.844zm2.308 3.493c0-1.475.241-2.594.723-3.356C59.81 23.38 60.546 23 61.535 23c.533 0 .985.106 1.357.317.372.211.674.512.907.901.232.39.403.862.513 1.417a9.64 9.64 0 0 1 .165 1.865c0 1.475-.243 2.594-.73 3.356-.485.763-1.223 1.144-2.212 1.144-.524 0-.972-.106-1.344-.317a2.514 2.514 0 0 1-.914-.901c-.236-.39-.408-.862-.513-1.417a10.014 10.014 0 0 1-.159-1.865zm1.002 0c0 .489.036.953.108 1.392.072.44.184.825.336 1.156.152.332.35.597.596.796.245.199.541.298.888.298.634 0 1.116-.298 1.446-.895.33-.596.494-1.512.494-2.747 0-.48-.036-.94-.108-1.38a4.616 4.616 0 0 0-.336-1.162 2.156 2.156 0 0 0-.596-.802c-.245-.199-.545-.298-.9-.298-.626 0-1.104.298-1.433.895-.33.596-.495 1.512-.495 2.747zm14.42-1.367l.114-1.318h-.05l-.406 1.23-1.789 3.78h-.317l-1.877-3.78-.393-1.23h-.05l.177 1.318v5.718h-.913v-8.702h.799l2.143 4.276.317 1.02h.026l.304-1.032 2.03-4.264h.836v8.702h-.951v-5.718zm2.308 1.367c0-1.475.241-2.594.723-3.356C77.54 23.38 78.276 23 79.265 23c.532 0 .985.106 1.357.317.372.211.674.512.907.901.232.39.403.862.513 1.417a9.64 9.64 0 0 1 .165 1.865c0 1.475-.243 2.594-.73 3.356-.485.763-1.223 1.144-2.212 1.144-.524 0-.973-.106-1.345-.317a2.514 2.514 0 0 1-.913-.901c-.236-.39-.408-.862-.513-1.417a10.014 10.014 0 0 1-.159-1.865zm1.002 0c0 .489.036.953.108 1.392.072.44.184.825.336 1.156.152.332.35.597.596.796.245.199.541.298.888.298.634 0 1.116-.298 1.446-.895.33-.596.494-1.512.494-2.747 0-.48-.036-.94-.108-1.38a4.616 4.616 0 0 0-.336-1.162 2.156 2.156 0 0 0-.596-.802c-.245-.199-.545-.298-.9-.298-.626 0-1.104.298-1.433.895-.33.596-.495 1.512-.495 2.747zm10.869 4.015a1.918 1.918 0 0 1-.8.373c-.32.075-.659.112-1.014.112-.448 0-.862-.083-1.243-.249a2.47 2.47 0 0 1-.982-.789c-.275-.36-.489-.827-.64-1.398-.153-.572-.23-1.26-.23-2.064 0-.829.087-1.529.26-2.1.174-.573.405-1.037.692-1.393.287-.356.62-.613.996-.77a2.979 2.979 0 0 1 1.16-.237c.406 0 .742.029 1.008.087.267.058.497.128.691.211l-.228.846a2.272 2.272 0 0 0-.596-.212 3.718 3.718 0 0 0-.786-.074c-.296 0-.575.064-.837.192a1.88 1.88 0 0 0-.698.622c-.203.286-.363.66-.482 1.125-.118.464-.177 1.032-.177 1.703 0 1.21.211 2.12.634 2.729.423.609.985.913 1.687.913.287 0 .545-.04.773-.118a2.54 2.54 0 0 0 .584-.28l.228.771zm2.574-3.692h-.456v4.028h-.951v-8.702h.95v4.053l.445-.174 2.308-3.879h1.09l-2.32 3.754-.444.398.52.497 2.574 4.053h-1.204l-2.512-4.028zm9.246-2.697c0 .215-.026.43-.076.646a2.24 2.24 0 0 1-.241.61c-.11.19-.248.36-.412.509a1.6 1.6 0 0 1-.603.336v.05c.203.04.398.109.584.204.186.096.35.228.494.398.144.17.258.377.343.622.084.244.126.536.126.876 0 .448-.071.835-.215 1.162a2.14 2.14 0 0 1-.59.802c-.25.207-.537.36-.862.46-.326.1-.67.15-1.034.15h-.412c-.156 0-.323-.007-.501-.02a10.774 10.774 0 0 1-.526-.05 3.009 3.009 0 0 1-.476-.092v-8.565a9.44 9.44 0 0 1 .894-.125c.343-.033.712-.05 1.11-.05.287 0 .575.028.862.082.288.053.546.155.774.304.228.15.412.359.552.628.14.27.209.623.209 1.063zm-2.41 5.967c.228 0 .44-.036.634-.106a1.455 1.455 0 0 0 .863-.833 1.85 1.85 0 0 0 .127-.715c0-.34-.053-.615-.159-.826a1.266 1.266 0 0 0-.412-.491 1.511 1.511 0 0 0-.577-.237 3.52 3.52 0 0 0-.666-.062h-.85v3.183a.97.97 0 0 0 .197.037l.266.025a6.756 6.756 0 0 0 .577.025zm-.52-4.078c.119 0 .254-.004.406-.012.152-.009.28-.021.38-.038a1.95 1.95 0 0 0 .806-.602c.224-.278.336-.62.336-1.026 0-.273-.038-.503-.114-.69a1.09 1.09 0 0 0-.31-.441 1.18 1.18 0 0 0-.464-.23 2.236 2.236 0 0 0-.558-.069c-.22 0-.418.007-.596.02a4.131 4.131 0 0 0-.406.043v3.045h.52zm4.502-3.866h3.945v.858h-2.993v2.946h2.752v.858h-2.752v3.182h3.056v.858h-4.008v-8.702zm12.455 3.008l.076-1.143h-.038l-.444 1.168-3.285 5.669h-.634v-8.702h.951v5.78l-.089 1.12h.051l.444-1.17 3.297-5.73h.622v8.702h-.951v-5.694zm10.767-.024l.114-1.318h-.05l-.407 1.23-1.788 3.78h-.317l-1.877-3.78-.393-1.23h-.05l.177 1.318v5.718h-.913v-8.702h.799l2.143 4.276.317 1.02h.025l.305-1.032 2.029-4.264h.837v8.702h-.951v-5.718zm2.308 1.367c0-1.475.241-2.594.723-3.356.482-.763 1.217-1.144 2.207-1.144.532 0 .985.106 1.357.317.372.211.674.512.906.901.233.39.404.862.514 1.417A9.64 9.64 0 0 1 133 27.5c0 1.475-.243 2.594-.73 3.356-.485.763-1.223 1.144-2.212 1.144-.525 0-.973-.106-1.345-.317a2.514 2.514 0 0 1-.913-.901c-.237-.39-.408-.862-.513-1.417a10.014 10.014 0 0 1-.159-1.865zm1.002 0c0 .489.036.953.108 1.392.072.44.184.825.336 1.156.152.332.35.597.596.796.245.199.541.298.888.298.634 0 1.116-.298 1.445-.895.33-.596.495-1.512.495-2.747 0-.48-.036-.94-.108-1.38a4.616 4.616 0 0 0-.336-1.162 2.156 2.156 0 0 0-.596-.802c-.245-.199-.545-.298-.9-.298-.626 0-1.104.298-1.433.895-.33.596-.495 1.512-.495 2.747zM3.908 9.148l-1.167-3.04h-.127l.406 2.99v8.556H0V.223h2.462l5.1 8.703 1.092 2.992h.152L8.4 8.975V.346h3.02v17.431H8.958l-5.05-8.629zM13.298 9c0-2.934.515-5.168 1.547-6.7C15.877.765 17.451 0 19.565 0c1.1 0 2.048.21 2.843.63a5.197 5.197 0 0 1 1.954 1.805c.507.783.884 1.731 1.129 2.844.245 1.112.368 2.353.368 3.721 0 2.934-.529 5.168-1.586 6.7-1.057 1.534-2.627 2.3-4.707 2.3-1.117 0-2.069-.21-2.855-.63a5.225 5.225 0 0 1-1.942-1.805c-.507-.783-.88-1.731-1.116-2.844-.237-1.112-.356-2.353-.356-3.721zm3.35 0c0 .874.05 1.685.151 2.435.102.75.271 1.397.508 1.941s.537.973.9 1.286c.365.313.817.47 1.359.47.98 0 1.717-.486 2.207-1.459.49-.972.736-2.53.736-4.673 0-.84-.05-1.636-.152-2.386-.102-.75-.266-1.401-.495-1.953-.228-.552-.529-.99-.9-1.31-.373-.322-.838-.483-1.396-.483-1.946 0-2.919 2.044-2.919 6.132zM27.736.52A17.67 17.67 0 0 1 29.97.197c.795-.066 1.48-.1 2.056-.1.727 0 1.438.071 2.131.211.694.14 1.307.396 1.84.767.533.37.964.873 1.294 1.508.33.634.495 1.438.495 2.41 0 1.402-.266 2.543-.8 3.425-.532.882-1.264 1.488-2.194 1.817l1.015.791 3.273 6.627H35.4l-3.095-6.824-1.37-.322v7.146h-3.198V.519zm3.197 7.862h1.092c.795 0 1.395-.235 1.801-.705.406-.47.61-1.199.61-2.188 0-.742-.17-1.348-.508-1.817-.339-.47-.871-.705-1.599-.705-.27 0-.533.008-.787.025-.253.016-.456.05-.609.099v5.29zM40.501.346c.305-.05.648-.086 1.028-.111.38-.025.77-.05 1.168-.074.397-.025.782-.041 1.154-.05.372-.008.702-.012.99-.012 1.404 0 2.576.21 3.515.63.939.42 1.691 1.014 2.258 1.78.567.767.969 1.686 1.206 2.757.236 1.072.355 2.267.355 3.586 0 1.203-.114 2.353-.343 3.449-.228 1.096-.63 2.06-1.205 2.893-.575.832-1.354 1.496-2.335 1.99-.981.495-2.216.742-3.705.742-.22 0-.516-.008-.888-.025a70.685 70.685 0 0 1-1.167-.062c-.406-.024-.796-.05-1.168-.074a9.787 9.787 0 0 1-.863-.086V.346zm4.67 2.621c-.27 0-.546.004-.825.012-.28.009-.495.03-.647.062V14.96c.05.016.14.029.266.037l.406.025.406.024c.127.009.216.013.267.013.761 0 1.387-.173 1.878-.52a3.55 3.55 0 0 0 1.154-1.384c.28-.577.474-1.24.584-1.99.11-.75.165-1.538.165-2.362 0-.758-.046-1.492-.14-2.2-.093-.71-.27-1.331-.532-1.867a3.21 3.21 0 0 0-1.117-1.286c-.482-.321-1.104-.482-1.865-.482zm18.982 13.995c-.44.362-1.028.626-1.764.79a9.951 9.951 0 0 1-2.195.248 6.996 6.996 0 0 1-2.55-.457c-.787-.305-1.477-.812-2.069-1.521-.592-.709-1.057-1.64-1.395-2.794-.339-1.154-.508-2.571-.508-4.253 0-1.747.19-3.198.571-4.351.38-1.154.88-2.073 1.497-2.757C56.358 1.183 57.064.7 57.86.42A7.207 7.207 0 0 1 60.27 0c.829 0 1.552.066 2.17.198.617.132 1.12.28 1.51.445l-.635 2.744a4.498 4.498 0 0 0-1.13-.383 7.557 7.557 0 0 0-1.534-.136c-1.168 0-2.064.495-2.69 1.484-.626.989-.94 2.538-.94 4.648 0 .907.073 1.735.216 2.485.144.75.373 1.397.686 1.94.313.545.71.965 1.192 1.262.483.297 1.062.445 1.739.445.592 0 1.1-.078 1.522-.235a6.06 6.06 0 0 0 1.142-.556l.635 2.62zM65.269 9c0-2.934.516-5.168 1.548-6.7C67.85.765 69.423 0 71.537 0c1.1 0 2.047.21 2.843.63a5.197 5.197 0 0 1 1.954 1.805c.507.783.883 1.731 1.129 2.844.245 1.112.368 2.353.368 3.721 0 2.934-.529 5.168-1.586 6.7-1.058 1.534-2.627 2.3-4.708 2.3-1.116 0-2.068-.21-2.855-.63a5.225 5.225 0 0 1-1.94-1.805c-.508-.783-.88-1.731-1.118-2.844-.236-1.112-.355-2.353-.355-3.721zm3.35 0c0 .874.05 1.685.152 2.435s.27 1.397.508 1.941c.237.544.537.973.9 1.286.364.313.817.47 1.358.47.982 0 1.717-.486 2.208-1.459.49-.972.736-2.53.736-4.673 0-.84-.05-1.636-.152-2.386-.102-.75-.267-1.401-.495-1.953-.228-.552-.529-.99-.901-1.31-.372-.322-.837-.483-1.396-.483-1.945 0-2.918 2.044-2.918 6.132zm10.684 0c0-2.934.516-5.168 1.548-6.7C81.883.765 83.456 0 85.57 0c1.1 0 2.047.21 2.842.63a5.197 5.197 0 0 1 1.954 1.805c.507.783.884 1.731 1.13 2.844.244 1.112.367 2.353.367 3.721 0 2.934-.529 5.168-1.586 6.7-1.057 1.534-2.626 2.3-4.707 2.3-1.117 0-2.069-.21-2.855-.63a5.225 5.225 0 0 1-1.942-1.805c-.507-.783-.88-1.731-1.116-2.844-.237-1.112-.355-2.353-.355-3.721zm3.35 0c0 .874.05 1.685.152 2.435.101.75.27 1.397.507 1.941s.537.973.901 1.286c.364.313.816.47 1.358.47.98 0 1.717-.486 2.207-1.459.491-.972.736-2.53.736-4.673 0-.84-.05-1.636-.152-2.386-.101-.75-.266-1.401-.495-1.953-.228-.552-.528-.99-.9-1.31-.373-.322-.838-.483-1.396-.483-1.946 0-2.919 2.044-2.919 6.132zm20.53 8.654h-9.441V.346h3.198v14.44h6.242v2.868zm1.04-1.607c0-.61.165-1.072.495-1.385.33-.313.765-.47 1.306-.47.593 0 1.05.157 1.37.47.322.313.483.775.483 1.385 0 .593-.165 1.055-.495 1.384-.33.33-.782.495-1.358.495-.558 0-.998-.165-1.32-.495-.32-.33-.481-.79-.481-1.384zM109.374.519a17.67 17.67 0 0 1 2.233-.321c.795-.066 1.48-.1 2.056-.1.727 0 1.438.071 2.132.211.693.14 1.306.396 1.84.767.532.37.964.873 1.294 1.508.33.634.494 1.438.494 2.41 0 1.402-.266 2.543-.799 3.425-.533.882-1.265 1.488-2.195 1.817l1.015.791 3.274 6.627h-3.68l-3.096-6.824-1.37-.322v7.146h-3.198V.519zm3.198 7.863h1.09c.796 0 1.397-.235 1.803-.705.406-.47.609-1.199.609-2.188 0-.742-.17-1.348-.508-1.817-.338-.47-.871-.705-1.599-.705-.27 0-.533.008-.786.025-.254.016-.457.05-.61.099v5.29zM129.98.346H133v11.225c0 2.242-.47 3.866-1.408 4.871-.94 1.006-2.238 1.509-3.896 1.509-1.945 0-3.37-.49-4.276-1.472-.905-.98-1.357-2.476-1.357-4.487V.346h3.197v11.102c0 1.351.186 2.295.558 2.83.373.537.99.804 1.853.804.829 0 1.421-.284 1.776-.853.356-.568.533-1.495.533-2.781V.346z" fill="#237DD7" fill-rule="evenodd"/></svg>